<?xml version="1.0" standalone="no"?>
<!DOCTYPE svg PUBLIC "-//W3C//DTD SVG 20010904//EN"
 "http://www.w3.org/TR/2001/REC-SVG-20010904/DTD/svg10.dtd">
<svg version="1.0" xmlns="http://www.w3.org/2000/svg"
 width="840.000000pt" height="347.000000pt" viewBox="0 0 840.000000 347.000000"
 preserveAspectRatio="xMidYMid meet">

<g transform="translate(0.000000,347.000000) scale(0.100000,-0.100000)"
fill="#000000" stroke="none">
<path d="M3040 3039 c-136 -26 -272 -136 -339 -273 -55 -114 -72 -188 -78
-353 l-6 -143 -78 0 -79 0 0 -90 0 -90 80 0 80 0 2 -840 3 -839 135 54 c74 30
136 55 138 55 1 0 2 353 2 785 l0 785 115 0 115 0 0 90 0 90 -115 0 -115 0 0
108 c1 121 18 230 49 313 22 58 86 140 124 161 68 36 181 26 287 -25 36 -17
69 -32 74 -32 4 0 21 32 37 70 l28 70 -32 28 c-81 70 -277 105 -427 76z"/>
<path d="M3360 2658 c-53 -37 -74 -72 -74 -126 0 -89 62 -152 150 -152 124 0
197 138 126 238 -45 62 -141 81 -202 40z"/>
<path d="M6915 2525 l-130 -53 -3 -86 -3 -86 -89 0 -90 0 0 -90 0 -89 83 -3
82 -3 5 -530 c5 -520 5 -531 27 -570 24 -45 99 -119 131 -129 13 -5 67 13 159
50 76 31 142 60 146 64 5 4 -12 19 -36 33 -24 14 -56 42 -71 61 -55 73 -56 80
-56 572 l0 454 120 0 120 0 0 90 0 90 -120 0 -120 0 0 140 c0 106 -3 140 -12
139 -7 0 -71 -24 -143 -54z"/>
<path d="M1232 2272 l-143 -57 4 -490 c3 -420 6 -499 21 -554 57 -218 184
-314 411 -315 113 0 151 9 349 85 70 28 129 49 130 47 1 -2 12 -25 23 -53 12
-27 25 -50 30 -50 4 0 45 15 91 34 l82 33 0 689 c0 379 -3 689 -7 689 -5 -1
-71 -27 -148 -58 l-140 -57 -3 -521 -2 -520 -118 -46 c-149 -59 -193 -70 -240
-62 -81 15 -130 60 -159 147 -15 46 -17 116 -21 585 -2 292 -7 532 -10 531 -4
0 -71 -26 -150 -57z"/>
<path d="M4490 2310 c-68 -17 -110 -32 -278 -99 l-53 -21 -21 47 c-11 27 -21
49 -22 50 -1 2 -44 -14 -94 -34 l-92 -37 0 -668 0 -668 38 16 c20 8 82 34 137
57 55 22 106 45 113 50 9 7 12 121 12 507 l0 497 79 31 c103 40 184 55 270 50
74 -4 106 -19 144 -70 42 -57 47 -115 47 -640 0 -274 2 -498 4 -498 2 0 35 13
72 29 38 16 104 43 147 61 l77 32 0 447 c0 464 -7 575 -41 666 -26 71 -95 147
-157 173 -102 44 -257 53 -382 22z"/>
<path d="M5743 2311 c-136 -37 -224 -100 -301 -216 -173 -258 -173 -742 0
-1000 74 -112 168 -180 303 -221 47 -14 91 -18 200 -17 164 1 221 14 422 93
l132 52 -21 52 c-11 28 -27 70 -36 94 -9 23 -21 42 -28 42 -6 0 -54 -18 -107
-40 -131 -55 -206 -72 -312 -73 -113 -1 -174 23 -240 94 -74 80 -125 223 -125
355 l0 54 427 0 426 0 -6 103 c-21 327 -164 546 -406 624 -78 24 -244 26 -328
4z m263 -186 c69 -41 130 -164 149 -302 l7 -53 -262 0 -263 0 7 60 c13 113 60
224 119 278 61 57 163 64 243 17z"/>
<path d="M3428 2237 l-128 -52 0 -652 0 -653 23 10 c12 5 74 29 137 54 l115
44 3 651 c2 518 0 651 -10 650 -7 0 -70 -24 -140 -52z"/>
</g>
</svg>
